<svg width="17" height="18" viewBox="0 0 17 18" fill="none" xmlns="http://www.w3.org/2000/svg">
<path d="M3.11437 1.06156C2.56989 1.27209 2.10527 1.55522 1.6479 2.01985C1.19054 2.47721 0.907406 2.94184 0.689613 3.48632C0.48634 4.00902 0.348405 4.61158 0.304847 5.49727C0.261288 6.38296 0.254028 6.65883 0.254028 8.90935C0.254028 11.1599 0.261288 11.4357 0.304847 12.3214C0.348405 13.1999 0.48634 13.8024 0.689613 14.3324C0.900146 14.8769 1.18328 15.3415 1.6479 15.7989C2.10527 16.2562 2.56989 16.5394 3.11437 16.7571C3.63707 16.9604 4.23963 17.0984 5.12532 17.1419C6.00375 17.1855 6.28688 17.1927 8.53741 17.1927C10.7879 17.1927 11.0638 17.1855 11.9495 17.1419C12.8279 17.0984 13.4305 16.9604 13.9604 16.7571C14.5049 16.5466 14.9695 16.2635 15.4269 15.7989C15.8843 15.3415 16.1674 14.8769 16.3852 14.3324C16.5885 13.8097 16.7264 13.2071 16.77 12.3214C16.8135 11.443 16.8208 11.1599 16.8208 8.90935C16.8208 6.65883 16.8135 6.38296 16.77 5.49727C16.7264 4.61158 16.5885 4.01628 16.3852 3.48632C16.1747 2.94184 15.8915 2.47721 15.4342 2.01985C14.9768 1.56248 14.5122 1.27935 13.9677 1.06156C13.445 0.858289 12.8424 0.720353 11.9567 0.676795C11.0711 0.633236 10.7952 0.625977 8.54467 0.625977C6.29414 0.625977 6.01827 0.633236 5.13258 0.676795C4.24689 0.713094 3.64433 0.858289 3.12163 1.06156H3.11437ZM11.8769 2.16504C12.6827 2.20134 13.1183 2.33928 13.416 2.44817C13.8007 2.60063 14.0766 2.77486 14.367 3.06525C14.6574 3.35564 14.8316 3.63151 14.9841 4.01628C15.1002 4.30667 15.2309 4.74952 15.2672 5.55535C15.3108 6.42652 15.3108 6.68787 15.3108 8.90209C15.3108 11.1163 15.3035 11.3777 15.2672 12.2488C15.2309 13.0547 15.093 13.4903 14.9841 13.7879C14.8316 14.1727 14.6574 14.4485 14.367 14.7389C14.0766 15.0293 13.8007 15.2036 13.416 15.356C13.1256 15.4722 12.6827 15.6028 11.8769 15.6391C11.0057 15.6827 10.7444 15.6827 8.53015 15.6827C6.31592 15.6827 6.05457 15.6754 5.1834 15.6391C4.37757 15.6028 3.94198 15.4649 3.64433 15.356C3.25957 15.2036 2.9837 15.0293 2.69331 14.7389C2.40292 14.4485 2.22868 14.1727 2.07623 13.7879C1.96007 13.4975 1.82939 13.0547 1.7931 12.2488C1.74954 11.3777 1.74954 11.1163 1.74954 8.90209C1.74954 6.68787 1.7568 6.42652 1.7931 5.55535C1.82939 4.74952 1.96733 4.31393 2.07623 4.01628C2.22868 3.63151 2.40292 3.35564 2.69331 3.06525C2.9837 2.77486 3.25957 2.60063 3.64433 2.44817C3.93472 2.33202 4.37757 2.20134 5.1834 2.16504C6.05457 2.12149 6.31592 2.12149 8.53015 2.12149C10.7444 2.12149 11.0057 2.12149 11.8769 2.16504Z" fill="#29C5F6"/>
<path d="M4.29039 8.90223C4.29039 11.2471 6.19244 13.1492 8.53734 13.1492C10.8822 13.1492 12.7843 11.2471 12.7843 8.90223C12.7843 6.55733 10.8822 4.65527 8.53734 4.65527C6.19244 4.65527 4.29039 6.55733 4.29039 8.90223ZM11.2961 8.90223C11.2961 10.4268 10.0619 11.6609 8.53734 11.6609C7.0128 11.6609 5.77864 10.4268 5.77864 8.90223C5.77864 7.37768 7.0128 6.14352 8.53734 6.14352C10.0619 6.14352 11.2961 7.37768 11.2961 8.90223Z" fill="#29C5F6"/>
<path d="M12.9586 5.48282C13.5079 5.48282 13.9532 5.03753 13.9532 4.48824C13.9532 3.93894 13.5079 3.49365 12.9586 3.49365C12.4093 3.49365 11.964 3.93894 11.964 4.48824C11.964 5.03753 12.4093 5.48282 12.9586 5.48282Z" fill="#29C5F6"/>
</svg>
