<svg width="31" height="24" viewBox="0 0 31 24" fill="none" xmlns="http://www.w3.org/2000/svg">
<g id="Frame 310">
<path id="Vector" fill-rule="evenodd" clip-rule="evenodd" d="M17.4793 8.35965L19.6513 7.77767L19.6723 7.80133C19.9642 7.7158 20.2131 7.52465 20.3631 7.26485L21.4731 5.34227C21.7881 4.79667 22.4848 4.61 23.0304 4.925C23.3594 5.115 23.5675 5.45454 23.6031 5.83301C23.7193 7.03172 23.488 8.27229 22.838 9.39812C21.788 11.2168 19.9241 12.2653 17.9738 12.3632C17.5966 12.3765 17.2694 12.6032 17.0844 12.9237L11.9044 21.8957C11.1494 23.2034 9.46921 23.6536 8.16151 22.8986C6.85381 22.1436 6.4036 20.4634 7.1586 19.1557L12.3386 10.1837C12.5236 9.86322 12.5477 9.46145 12.3792 9.13325C11.489 7.39526 11.465 5.25677 12.515 3.43812C13.165 2.31229 14.1287 1.48306 15.2286 0.998013C15.5741 0.839545 15.9722 0.85 16.3013 1.04C16.8469 1.355 17.0336 2.05167 16.7186 2.59727L15.6136 4.51118C15.4636 4.77099 15.4175 5.0908 15.4944 5.37767L16.0764 7.54965C16.2411 8.16436 16.8646 8.52436 17.4793 8.35965ZM9.19615 21.1865C9.67444 21.4627 10.286 21.2988 10.5622 20.8205C10.8383 20.3422 10.6744 19.7306 10.1962 19.4545C9.71786 19.1783 9.10627 19.3422 8.83013 19.8205C8.55398 20.2988 8.71786 20.9104 9.19615 21.1865Z" fill="url(#paint0_linear_0_500)"/>
</g>
<defs>
<linearGradient id="paint0_linear_0_500" x1="19.6615" y1="2.98" x2="8.16151" y2="22.8986" gradientUnits="userSpaceOnUse">
<stop stop-color="#4BD4FF"/>
<stop offset="1" stop-color="#007AD5"/>
</linearGradient>
</defs>
</svg>
