<svg width="51" height="50" viewBox="0 0 51 50" fill="none" xmlns="http://www.w3.org/2000/svg">
<g id="Group 280">
<path id="Vector" d="M25.5 48.9815H24.5428C11.6832 48.4833 1.5 37.9872 1.5 25C1.5 11.6927 12.2102 1 25.5 1C38.7908 1 49.5 11.6751 49.5 24.9815C49.5 38.2893 38.8078 48.9815 25.5 48.9815Z" fill="#0D141E" stroke="url(#paint0_linear_0_534)" stroke-width="2"/>
<path id="Vector_2" d="M20.9716 16.5658C23.9455 19.5451 27.4477 22.9583 29.0303 26.6545C30.706 30.5701 29.2326 35.0359 27.4502 37.8869C25.6678 40.7379 24.502 43.0649 25.0855 43.5337C25.669 44.0024 29.7009 41.1419 30.6251 36.272C31.6291 30.9813 31.1106 26.9254 27.0616 22.0783C22.5615 16.6905 18.0565 13.2389 16.2741 12.0352C14.4918 10.8315 14.2012 7.34633 17.8935 8.10763C21.587 8.86773 32.8268 13.9366 35.58 19.5127C38.3333 25.0887 32.9886 36.6844 31.4011 39.3771C33.7339 33.7699 37.1994 24.8034 34.6729 19.8927C32.1464 14.9821 22.3642 10.7044 19.9995 9.9767C17.6348 9.24897 15.5619 8.96244 16.6627 10.3891C17.7635 11.8158 20.8085 13.4307 24.8257 17.5813C28.8428 21.7318 31.1743 25.0264 32.0814 29.0499C32.9886 33.0733 31.9846 37.8257 30.2022 40.7714C28.4198 43.7171 25.8296 45.5874 24.1772 44.6367C22.5247 43.6859 25.6776 39.0234 27.1253 36.3044C28.6785 33.3887 30.1385 29.1122 27.4171 24.9305C24.6957 20.7487 22.9795 18.7526 20.9704 16.567L20.9716 16.5658Z" fill="url(#paint1_linear_0_534)"/>
</g>
<defs>
<linearGradient id="paint0_linear_0_534" x1="25.5" y1="0" x2="25.5" y2="50" gradientUnits="userSpaceOnUse">
<stop stop-color="#4BD4FF"/>
<stop offset="1" stop-color="#007AD5"/>
</linearGradient>
<linearGradient id="paint1_linear_0_534" x1="19.3768" y1="6.99626" x2="33.6109" y2="42.8408" gradientUnits="userSpaceOnUse">
<stop offset="0.21" stop-color="#29C5F6"/>
<stop offset="0.51" stop-color="#1B88DD"/>
<stop offset="0.87" stop-color="#29C5F6"/>
</linearGradient>
</defs>
</svg>
