<svg width="19" height="16" viewBox="0 0 19 16" fill="none" xmlns="http://www.w3.org/2000/svg">
<path d="M17.4831 2.34423L18.9996 0.898237V0.581543H13.7474L10.0043 9.87123L5.74664 0.581543H0.239608V0.898237L2.01096 3.02426C2.18414 3.18138 2.2732 3.41215 2.25094 3.64292V11.9973C2.30536 12.2992 2.20888 12.6061 1.99612 12.8246L-0.000366211 15.2378V15.5496H5.6551V15.2329L3.66109 12.827C3.55425 12.7194 3.47389 12.5888 3.42626 12.4453C3.37863 12.3018 3.36502 12.1493 3.38648 11.9997V4.77221L8.35172 15.5545H8.92815L13.1982 4.77221V13.3622C13.1982 13.5881 13.1982 13.6347 13.0498 13.7845L11.5134 15.2648V15.5815H18.965V15.2648L17.4831 13.8189C17.3545 13.7207 17.2877 13.5562 17.3149 13.3966V2.76649C17.3021 2.68759 17.3109 2.60674 17.3405 2.53242C17.3701 2.45811 17.4194 2.3931 17.4831 2.34423Z" fill="#29C5F6"/>
</svg>
