<svg width="18" height="14" viewBox="0 0 18 14" fill="none" xmlns="http://www.w3.org/2000/svg">
<path d="M14.9089 1.89289C13.7955 1.39314 12.5997 1.02491 11.3489 0.827637C11.1977 1.09066 11.019 1.44574 10.8953 1.73507C9.56198 1.5378 8.25619 1.5378 6.9504 1.73507C6.82669 1.44574 6.64801 1.09066 6.48306 0.827637C5.23225 1.03806 4.03642 1.39314 2.92307 1.90604C0.668858 5.15439 0.0503252 8.33699 0.352719 11.467C1.85094 12.5322 3.29418 13.1898 4.72368 13.6106C5.08106 13.1503 5.38345 12.6506 5.65835 12.1377C5.14978 11.9536 4.65496 11.7169 4.18762 11.4538C4.31133 11.3618 4.43503 11.2697 4.54499 11.1776C7.39024 12.4533 10.4692 12.4533 13.2732 11.1776C13.3969 11.2697 13.5068 11.3618 13.6306 11.4538C13.1632 11.7169 12.6684 11.9536 12.1598 12.1377C12.4347 12.6506 12.7371 13.1503 13.0945 13.6106C14.524 13.1898 15.9672 12.5322 17.4655 11.467C17.8228 7.83724 16.8469 4.68095 14.8951 1.89289H14.9089ZM6.04322 9.5469C5.19102 9.5469 4.49001 8.78413 4.49001 7.86354C4.49001 6.94296 5.17727 6.16703 6.04322 6.16703C6.90916 6.16703 7.61017 6.9298 7.59642 7.86354C7.59642 8.79728 6.90916 9.5469 6.04322 9.5469ZM11.775 9.5469C10.9228 9.5469 10.2217 8.78413 10.2217 7.86354C10.2217 6.94296 10.909 6.16703 11.775 6.16703C12.6409 6.16703 13.3419 6.9298 13.3282 7.86354C13.3282 8.79728 12.6409 9.5469 11.775 9.5469Z" fill="#29C5F6"/>
</svg>
