<svg width="9" height="19" viewBox="0 0 9 19" fill="none" xmlns="http://www.w3.org/2000/svg">
<path d="M1.94391 3.79033C1.94391 4.25094 1.94391 6.30683 1.94391 6.30683H0.140137V9.38402H1.94391V18.5283H5.64924V9.38428H8.13568C8.13568 9.38428 8.36855 7.90879 8.48143 6.29549C8.1578 6.29549 5.66325 6.29549 5.66325 6.29549C5.66325 6.29549 5.66325 4.50527 5.66325 4.19149C5.66325 3.87702 6.06724 3.45402 6.46654 3.45402C6.86508 3.45402 7.70625 3.45402 8.48534 3.45402C8.48534 3.03505 8.48534 1.58744 8.48534 0.250488C7.44527 0.250488 6.26202 0.250488 5.74045 0.250488C1.85232 0.250276 1.94391 3.33053 1.94391 3.79033Z" fill="#29C5F6"/>
</svg>
