<svg width="20" height="16" viewBox="0 0 20 16" fill="none" xmlns="http://www.w3.org/2000/svg">
<path d="M19.0504 2.12038C18.3645 2.42651 17.6242 2.63424 16.8513 2.72171C17.6351 2.25158 18.2448 1.49719 18.5278 0.600669C17.7875 1.038 16.971 1.35506 16.1001 1.52999C15.4034 0.786533 14.4127 0.316406 13.3132 0.316406C11.2012 0.316406 9.49205 2.03292 9.49205 4.15395C9.49205 4.46008 9.52471 4.74435 9.59003 5.02861C6.41119 4.86461 3.60248 3.3449 1.70824 1.01613C1.38165 1.58466 1.18569 2.24065 1.18569 2.94037C1.18569 4.27422 1.86065 5.44407 2.88398 6.13286C2.25256 6.11099 1.6647 5.93606 1.15303 5.6518V5.69553C1.15303 7.55417 2.47029 9.10669 4.22301 9.45655C3.9073 9.54401 3.56982 9.58775 3.22146 9.58775C2.97107 9.58775 2.73157 9.56588 2.50295 9.52215C2.99284 11.0419 4.39719 12.157 6.07371 12.1898C4.76733 13.2176 3.11259 13.8298 1.32722 13.8298C1.0224 13.8298 0.717575 13.808 0.412754 13.7752C2.10015 14.8685 4.11415 15.5026 6.26966 15.5026C13.3023 15.5026 17.1452 9.65335 17.1452 4.58035C17.1452 4.41635 17.1452 4.25235 17.1343 4.08835C17.8855 3.55263 18.5278 2.87477 19.0395 2.09852" fill="#29C5F6"/>
</svg>
