<svg width="21" height="24" viewBox="0 0 21 24" fill="none" xmlns="http://www.w3.org/2000/svg">
<path d="M15.2635 5.41421C16.0445 4.63317 17.3108 4.63317 18.0919 5.41421C18.8729 6.19526 18.8729 7.46159 18.0919 8.24264L7.24264 19.0919C6.46159 19.8729 5.19526 19.8729 4.41421 19.0919C3.63316 18.3108 3.63316 17.0445 4.41421 16.2635L15.2635 5.41421Z" fill="#FF4FD8"/>
<path d="M18.0921 16.2635C18.8731 17.0445 18.8731 18.3108 18.0921 19.0919C17.311 19.8729 16.0447 19.8729 15.2636 19.0919L4.4144 8.24264C3.63335 7.4616 3.63335 6.19527 4.4144 5.41422C5.19545 4.63317 6.46178 4.63317 7.24283 5.41422L18.0921 16.2635Z" fill="#FF4FD8"/>
</svg>
